<svg xmlns="http://www.w3.org/2000/svg" aria-hidden="true" style="position:absolute;width:0;height:0;overflow:hidden">
  <defs>
    <symbol id="icon-menu" viewBox="0 0 24 24">
      <path d="M3 13h18a1 1 0 0 0 0-2H3a1 1 0 0 0 0 2zm0-6h18a1 1 0 0 0 0-2H3a1 1 0 0 0 0 2zm0 12h18a1 1 0 0 0 0-2H3a1 1 0 0 0 0 2z"/>
    </symbol>
    <symbol id="icon-close" viewBox="0 0 24 24">
      <path d="M18.984 6.422 13.406 12l5.578 5.578-1.406 1.406L12 13.406l-5.578 5.578-1.406-1.406L10.594 12 5.016 6.422l1.406-1.406L12 10.594l5.578-5.578z"/>
    </symbol>
    <symbol id="icon-card" viewBox="0 0 46 32">
      <path fill="#6a54ff" style="fill: var(--color1, #6a54ff)" d="M39.718 0.178c-0.115-0.114-0.271-0.178-0.433-0.178h-38.67c-0.34 0-0.615 0.276-0.615 0.615v30.769c0 0.34 0.276 0.615 0.615 0.615h44.769c0.34 0 0.615-0.276 0.615-0.615v-24.743c0-0.165-0.066-0.322-0.183-0.438l-6.099-6.026z"></path>
    </symbol>
    <symbol id="icon-arrow-thin-up" viewBox="0 0 20 20">
      <path d="M9 3.828l-6.071 6.071-1.414-1.414 8.485-8.485 8.485 8.485-1.414 1.414-6.071-6.071v16.172h-2v-16.172z"></path>
    </symbol>
    <symbol id="icon-logo-Profit" viewBox="0 0 22 32">
      <path d="M12.608 23.221l-12.608-21.765 6.262 5.026 8.005 13.865-1.66 2.875z"></path>
      <path d="M24.443 10.043l-12.545 21.801 1.221-7.936 8.005-13.865h3.319z"></path>
      <path d="M14.72 18.703l4.742-8.213h-9.484l4.742 8.213z"></path>
      <path d="M7.187 6.52l25.153-0.036-7.484 2.911h-16.010l-1.66-2.875z"></path>
    </symbol>
  </defs>
</svg>
